<svg xmlns="http://www.w3.org/2000/svg" viewBox="726.785 652.801 596.32 736.2" role="img" aria-label="readout"><path fill="#56E0BC" d="M792.603 1382.26C738.332 1383.16 732.823 1350.66 735.097 1306.19C735.674 1294.9 735.161 1281.3 735.171 1269.81L735.213 1115.79L735.2 849.484L735.192 767.904C735.155 743.571 730.785 711.381 745.438 691.766C752.975 681.676 766.885 674.246 779.429 673.61C805.266 672.3 831.127 673.493 856.986 673.147C876.655 674.687 901.367 671.036 920.612 674.153C968.35 681.885 959.883 729.341 960.469 764.402C960.527 767.85 961.206 769.13 963.525 770.97C965.899 771.319 967.206 771.01 969.411 770.16C987.449 763.209 984.029 749.149 991.197 733.054C1002.85 706.898 1037.88 688.841 1063.02 679.238C1119.03 657.876 1180.14 656.801 1238.55 667.862C1268.26 673.489 1292.13 675.287 1303.5 707.153C1305.71 719.829 1306.05 840.999 1303.08 848.893C1299.58 870.934 1273.19 887.221 1251.37 882.472C1234.07 878.707 1217.73 871.486 1200.42 867.593C1146.68 853.097 1091.64 863.531 1045.32 893.904C1003.88 921.077 975.65 968.532 967.397 1017.08C961.968 1049.01 963.643 1090.27 963.618 1123.75L963.475 1275.06C963.489 1286.51 963.449 1298.21 963.611 1309.59C963.959 1334.07 965.984 1358.75 942.366 1374.17C925.786 1385 900.564 1382.22 881.234 1382.23L804.576 1382.24L792.603 1382.26Z"/><path fill="#56E0BC" d="M1091.9 1347.11C1109.95 1346.71 1293.73 1345.85 1300.41 1348.37C1305.12 1350.19 1308.88 1353.86 1310.8 1358.53C1315.62 1370.58 1308.52 1378.72 1297.45 1382.44L1150.33 1382.54C1134.25 1382.54 1104.27 1384.14 1089.85 1381.49C1076.26 1379 1072.43 1355.92 1091.9 1347.11Z"/><path fill="#56E0BC" d="M1091.25 1138.43C1159.43 1136.17 1232.84 1138.97 1301.04 1139.63C1304.15 1139.66 1309.18 1146.05 1310.33 1148.95C1312.21 1153.77 1311.98 1159.16 1309.71 1163.81C1306.96 1169.47 1303.06 1171.35 1297.52 1173.48L1152.28 1173.49C1134.91 1173.51 1107.11 1174.74 1090.63 1172.72C1077.65 1171.14 1070.35 1147.85 1091.25 1138.43Z"/><path fill="#56E0BC" d="M1108.29 1239.49L1230.21 1239.19C1251.21 1239.14 1272.04 1238.73 1293.23 1239.62C1309.41 1240.29 1319.11 1255.4 1306.73 1268.24C1300.07 1275.15 1291.39 1274.29 1282.5 1274.18C1218.67 1274.25 1154 1274.74 1090.22 1273.96C1088.78 1273.07 1087.39 1272.1 1086.05 1271.06C1078.28 1264.93 1073.71 1254.05 1082.19 1246.26C1090.64 1238.49 1097.65 1239.49 1108.29 1239.49Z"/></svg>
